DataType=double
version=3
OpenSimVersion=4.5-2023-11-26-efcdfd3eb
endheader
time	EMG01_right_gast_med	EMG02_right_glut_max	EMG03_left_gast_med	EMG04_left_glut_max	EMG05_right_glut_med	EMG06_right_bic_fem	EMG07_right_rect_fem	EMG08_right_vast_lat	EMG09_right_vast_med	EMG10_right_tens_fasc_lat	EMG11_left_glut_med	EMG12_left_bic_fem	EMG13_left_rect_fem	EMG14_left_vast_lat	EMG15_left_vast_med	EMG16_left_tens_fasc_lat
1.07	0.01826235241882333	0.08322110537032212	0.4011531993143017	0.02742830860545584	0.02849943201931027	0.1768934769838281	0.01578819443478694	0.009365484112973752	0.01638887348368897	0.07301563174834513	0.07539314267312162	0.02472604379384807	0.05464061696695365	0.009568710254563495	0.006855785249339051	0.1208426415748382
1.08	0.02195005725232608	0.07902192758723213	0.4010649036655138	0.02602320205445495	0.03124748381120405	0.1803719053362132	0.01721572249457862	0.009578440582714575	0.01888005695853973	0.06891945750401048	0.07207038919249907	0.0249811784637564	0.05447287323424112	0.01009062579114565	0.005906065504655894	0.1101660084723074
1.09	0.025796696584114	0.07557976029147018	0.3993336938774273	0.02491885415510152	0.0344749195665262	0.1832437483897351	0.01884318239704036	0.009905957340362799	0.02164252814673041	0.06546919823490709	0.06884806854195499	0.02515583075708651	0.05428637186325102	0.01077332132349713	0.00530761770714872	0.09994123039954672
1.1	0.02981313934520834	0.07290111749015478	0.395933483831116	0.02414827548626047	0.03812707861445097	0.1854812675217832	0.02065117260627372	0.01034030334051461	0.02465860953824091	0.06267797163368548	0.06573292712253567	0.02524071861177617	0.05406286146598082	0.01159654445766716	0.005044849890342457	0.09021855130591161
1.11	0.03400908932733906	0.07098174822668252	0.3908590229132517	0.02374189020114023	0.04214511171470688	0.1870638783581911	0.02261861323769136	0.0108725639484853	0.02790723487667227	0.06054954524856841	0.06273109454279646	0.0252286221178612	0.05378642999636052	0.01254000421213353	0.005099841733077089	0.08104129844326724
1.12	0.03839246069544096	0.06980704250792644	0.3841265667981074	0.02372692978098502	0.04646674752348643	0.1879781659326553	0.0247229336395543	0.01149280096901657	0.03136413782524841	0.05907855925773366	0.05984801434166125	0.02511442421201694	0.05344359822714916	0.01358356530677775	0.005452559614850681	0.07244567660758559
1.13	0.04296881424497721	0.0693525648090508	0.3757741383076761	0.02412684485792873	0.05102708822462429	0.1882177831198021	0.02694027246146375	0.01219022125464516	0.03500208713210329	0.05825086608043863	0.05708837497641648	0.02489511662893594	0.05302335696432293	0.014707419587271	0.006081067314757132	0.06446066121267791
1.14	0.04774086691956802	0.06958469991680831	0.3658613419307158	0.02496074657984183	0.05575942800851832	0.1877832542814031	0.02924568875201459	0.01295335054789431	0.03879116684012267	0.05804397925875493	0.05445604279999391	0.02456977407649641	0.05251715355971194	0.01589223377757185	0.006961732647173401	0.05710798880301976
1.15	0.05270808616522066	0.07046139542773522	0.3544686958611735	0.02624288910485785	0.06059608814834028	0.1866817051189158	0.0316133828941621	0.01377020890139963	0.04269909928880702	0.05842762288481958	0.05195399904922073	0.02413950031428803	0.05191883406724269	0.01711927369927776	0.008069430640475654	0.05040224259974576
1.16	0.05786637937336526	0.07193298576343696	0.341696456938252	0.02798220483585251	0.06546926226068706	0.1849265377896143	0.03401692713504298	0.014628483905074	0.04669160778983204	0.05936437159394559	0.04958428338585571	0.0236073500157961	0.05122454748657856	0.01837050605092401	0.009377744156407252	0.04435102951391257
1.17	0.0632078869163465	0.07394308326147586	0.3276629410392206	0.0301819038996434	0.07031186452480712	0.1825370669572603	0.03642950656194859	0.01551569805995989	0.05073281488201872	0.06081037007725341	0.04734794735133724	0.0229782303364872	0.05043261825777838	0.01962867984957257	0.01085916315972423	0.03895524354919219
1.18	0.06872088512295363	0.07642952231951085	0.3125023808520194	0.03283914898849421	0.0750583720607105	0.1795381278258675	0.038824171922979	0.01641936703594932	0.05478567083475237	0.06271612034837171	0.04524502185823789	0.02225878615718792	0.04954339289503654	0.0208773907086794	0.01248528417392589	0.03420940894986384
1.19	0.07438980299951084	0.07932534300405739	0.2963624013993227	0.03594481595729155	0.07964565060280522	0.1759596623138484	0.04117410548667168	0.0173271463386088	0.05881240548174059	0.06502732455256467	0.04327450309942715	0.02145727291275566	0.04855906648823884	0.02210113214167061	0.01422701176766077	0.03010209510342554
1.2	0.0801953535816807	0.08255980136311129	0.2794012169114081	0.03948334958335903	0.08401375046848551	0.171836284946898	0.04345290037784814	0.01822696500696993	0.06277499475954339	0.06768577067891469	0.04143436081834486	0.02058342065561461	0.04748349465321784	0.02328533877229962	0.0160547641587877	0.02661639413799737
1.21	0.08611477754974978	0.08605939472609693	0.2617846571271087	0.04343272269600573	0.08810665808869468	0.1672068257507571	0.04563485271453089	0.01910714607530589	0.06663563199569543	0.07063024809475441	0.03972157190511257	0.0196482926045451	0.04632199634468463	0.02441642644897808	0.0179386851155597	0.02373045139654258
1.22	0.09212219333350231	0.08974889099422331	0.2436831242482279	0.04776450544036549	0.0918729875758398	0.1621138438981229	0.04769526458950953	0.01995651443051634	0.07035719343411882	0.07379747966640035	0.03813218106219842	0.01866414096616603	0.04508115279767946	0.02548183378209569	0.01984886418054368	0.02141803860150522
1.23	0.09818904462519321	0.09355235112157366	0.2252685716051419	0.05244404974838968	0.09526659717473296	0.1566031048161458	0.04961075474900442	0.0207644933130766	0.07390368790113692	0.07712305740596928	0.03666138902576611	0.01764426227974679	0.04376860771062067	0.02647006872760628	0.02175556679795907	0.01964915952188847
1.24	0.1042846330990272	0.09739413395371226	0.2067115842374354	0.05743079221898843	0.0982471165764018	0.1507230165966322	0.05135957283305351	0.02152119102100001	0.07724068221415813	0.08054236863142071	0.03530366765752942	0.01660285392688835	0.0423928735648101	0.02737076272256571	0.02362947523375269	0.01839067813408749
1.25	0.110376721064757	0.1011998724987941	0.1881786297319429	0.06267867663338211	0.1007803726308357	0.1445240283639127	0.05292191208606231	0.0222174794314057	0.0803356970988571	0.08399149928389466	0.03405290029249603	0.01555487285182514	0.04096314859019691	0.02817473371140617	0.02544194035765916	0.01760695942238836
1.26	0.1164321858151793	0.1048974103433475	0.169829534957267	0.06813669525096991	0.1028387035179173	0.1380580008071614	0.05428021435156507	0.02284506587891922	0.0831585721777784	0.08740810070381277	0.03290254513352321	0.01451589702930108	0.03948914823529402	0.02887405835589806	0.02716524354765277	0.0172605130208551
1.27	0.122417705245579	0.1084176862926882	0.1518152317534314	0.07374954580844671	0.104401155663438	0.1313775643296916	0.05541946007212422	0.02339655976375738	0.08568180124462926	0.0907322063072792	0.03184581906691848	0.0135019897567136	0.03798095417891961	0.02946215289855747	0.0287728672764283	0.01731262990361974
1.28	0.128300453933234	0.1116955550326719	0.1342758029285047	0.07945839878229653	0.1054535632364388	0.1245354819656413	0.05632743527582563	0.0238655348980118	0.08788083933336233	0.09390698529029863	0.03087589873343289	0.01252956635360745	0.03644888314472798	0.02993386149371752	0.03023977233716515	0.0177240024149133
1.29	0.1340487907796534	0.1146705322547972	0.1173388492527986	0.08520176693660644	0.1059885156442213	0.1175840329095173	0.05699496743626301	0.02424658796147837	0.08973438144098327	0.09687942172957398	0.02998613490495347	0.01161526234100453	0.03490337698395327	0.0302855501886571	0.03154267903320412	0.0184553182884198
1.3	0.1396329230406605	0.1172874540656231	0.1011181884531209	0.09091646626469842	0.1060052229448882	0.1105744296468729	0.05741612279830663	0.0245353926581666	0.09122461057250443	0.09960090968478225	0.02917027532772122	0.01077580176367487	0.03335491437500117	0.03051520409499656	0.03266034885047843	0.01946782003869772
1.31	0.1450255354898662	0.1194970421972119	0.08571288849684129	0.09653865390497168	0.105509291911939	0.1035562785493705	0.05758835936338487	0.02472874848669205	0.09233741128514883	0.1020277586279307	0.02842269039899154	0.01002786409532831	0.03181394299539111	0.03062252473334798	0.03357386214354825	0.02072382211234673
1.32	0.1502023754658315	0.1212563688861653	0.07120662978808882	0.1020049244617214	0.1045124264428905	0.09657709082275051	0.05751263213817867	0.02482462254271662	0.09306254459316744	0.1041216082664772	0.02773859550255164	0.009387948104772951	0.03029082953654547	0.03060902406648588	0.03426688636492914	0.02218717936360016
1.33	0.1551427837638318	0.1225292187807738	0.05766738430797266	0.1072534417261524	0.1030320654971695	0.08968184786150488	0.05719344987428369	0.02482218227012242	0.09339378057365737	0.1058497560287124	0.02711426367890249	0.008872231096398809	0.02879582398434667	0.0304781111887189	0.03472592862573663	0.02382370178387522
1.34	0.1598301591186279	0.1232863491589265	0.04514739419502778	0.1122250786897235	0.1010909705630025	0.08291262276875558	0.05663888437141795	0.02472181637899481	0.09332898555924991	0.1071854027946422	0.02654722260019485	0.008496422069974759	0.02733903442543796	0.03023516684044193	0.03494056609448312	0.02560151186911023
1.35	0.1642523422230165	0.1235056527550203	0.03368342771881985	0.1168645356245093	0.09871677358814852	0.07630825864525566	0.05586053384802261	0.0245251404338438	0.09287016102831248	0.1081078227449577	0.02603643042477443	0.008275607632638777	0.02593040902322798	0.02988759983457314	0.03490364788657899	0.02749134233356429
1.36	0.1684019040531666	0.1231722292848744	0.02329728697190873	0.1211214041608805	0.09594149583361068	0.06990410407651482	0.05487344119872552	0.02423498345698377	0.09202343104966416	0.1086024620797156	0.02558242581088979	0.008224089963205247	0.0245797223022887	0.02944487826066038	0.0346114625409882	0.02946677305012614
1.37	0.1722763223580324	0.1222783728359277	0.01399653883679168	0.1249511446777806	0.09280104802892115	0.06373180614484379	0.05369596709590731	0.02385535275693132	0.09079897428726152	0.108660969531329	0.02518744806197686	0.008355216686186261	0.02329656327598782	0.0289185273624262	0.03406386597603002	0.0315044072476204
1.38	0.1758780303558802	0.1208234826643381	0.005775438813485139	0.1283159451015305	0.08933472185396307	0.05781916077528359	0.0523496175548238	0.02339137593665852	0.08921089572092883	0.1082811596840452	0.02485552399449085	0.008681203021768306	0.02209032324505303	0.0283220858678364	0.03326436604133289	0.03358398804463994
1.39	0.179214323850854	0.1188139043181765	-0.001383983952928294	0.131185431648277	0.08558468182829665	0.05219001960685109	0.05085882574713338	0.02284922104729462	0.08727703390680179	0.1074669084431322	0.02459251854354474	0.009212947045018504	0.02097018129304221	0.02767101379801967	0.03222016120165983	0.03568845711148717
1.4	0.1822971163267552	0.1162627069090585	-0.007510712639058896	0.1335372057580088	0.08159546544971354	0.04686425212293525	0.04925068823606039	0.02223599754425586	0.08501870282690498	0.1062279786388423	0.02440614631975346	0.009959839544517944	0.01994508570313075	0.02698254743929236	0.03094213217711018	0.03780395769618911
